<svg width="32" height="32" viewBox="0 0 32 32" fill="none" xmlns="http://www.w3.org/2000/svg">
<rect width="32" height="32" rx="10" fill="white"/>
<path d="M15.992 20H14.312L10.508 14.252V20H8.828V11.612H10.508L14.312 17.372V11.612H15.992V20ZM23.7842 11.624V20H22.1042V14.552L19.8602 20H18.5882L16.3322 14.552V20H14.6522V11.624H16.5602L19.2242 17.852L21.8882 11.624H23.7842Z" fill="black"/>
<path d="M15.992 20V20.5H16.492V20H15.992ZM14.312 20L13.895 20.2759L14.0433 20.5H14.312V20ZM10.508 14.252L10.925 13.9761L10.008 12.5905V14.252H10.508ZM10.508 20V20.5H11.008V20H10.508ZM8.828 20H8.328V20.5H8.828V20ZM8.828 11.612V11.112H8.328V11.612H8.828ZM10.508 11.612L10.9252 11.3365L10.777 11.112H10.508V11.612ZM14.312 17.372L13.8948 17.6475L14.812 19.0364V17.372H14.312ZM14.312 11.612V11.112H13.812V11.612H14.312ZM15.992 11.612H16.492V11.112H15.992V11.612ZM15.992 19.5H14.312V20.5H15.992V19.5ZM14.729 19.7241L10.925 13.9761L10.091 14.5279L13.895 20.2759L14.729 19.7241ZM10.008 14.252V20H11.008V14.252H10.008ZM10.508 19.5H8.828V20.5H10.508V19.5ZM9.328 20V11.612H8.328V20H9.328ZM8.828 12.112H10.508V11.112H8.828V12.112ZM10.0908 11.8875L13.8948 17.6475L14.7292 17.0965L10.9252 11.3365L10.0908 11.8875ZM14.812 17.372V11.612H13.812V17.372H14.812ZM14.312 12.112H15.992V11.112H14.312V12.112ZM15.492 11.612V20H16.492V11.612H15.492ZM23.7842 11.624H24.2842V11.124H23.7842V11.624ZM23.7842 20V20.5H24.2842V20H23.7842ZM22.1042 20H21.6042V20.5H22.1042V20ZM22.1042 14.552H22.6042L21.6419 14.3616L22.1042 14.552ZM19.8602 20V20.5H20.195L20.3225 20.1904L19.8602 20ZM18.5882 20L18.1263 20.1913L18.2541 20.5H18.5882V20ZM16.3322 14.552L16.7942 14.3607L15.8322 14.552H16.3322ZM16.3322 20V20.5H16.8322V20H16.3322ZM14.6522 20H14.1522V20.5H14.6522V20ZM14.6522 11.624V11.124H14.1522V11.624H14.6522ZM16.5602 11.624L17.0199 11.4274L16.8902 11.124H16.5602V11.624ZM19.2242 17.852L18.7645 18.0486L19.2242 19.1234L19.6839 18.0486L19.2242 17.852ZM21.8882 11.624V11.124H21.5583L21.4285 11.4274L21.8882 11.624ZM23.2842 11.624V20H24.2842V11.624H23.2842ZM23.7842 19.5H22.1042V20.5H23.7842V19.5ZM22.6042 20V14.552H21.6042V20H22.6042ZM21.6419 14.3616L19.3979 19.8096L20.3225 20.1904L22.5665 14.7424L21.6419 14.3616ZM19.8602 19.5H18.5882V20.5H19.8602V19.5ZM19.0502 19.8087L16.7942 14.3607L15.8703 14.7433L18.1263 20.1913L19.0502 19.8087ZM15.8322 14.552V20H16.8322V14.552H15.8322ZM16.3322 19.5H14.6522V20.5H16.3322V19.5ZM15.1522 20V11.624H14.1522V20H15.1522ZM14.6522 12.124H16.5602V11.124H14.6522V12.124ZM16.1005 11.8206L18.7645 18.0486L19.6839 17.6554L17.0199 11.4274L16.1005 11.8206ZM19.6839 18.0486L22.3479 11.8206L21.4285 11.4274L18.7645 17.6554L19.6839 18.0486ZM21.8882 12.124H23.7842V11.124H21.8882V12.124Z" fill="black"/>
</svg>
