<svg width="32" height="32" viewBox="0 0 32 32" fill="none" xmlns="http://www.w3.org/2000/svg">
<rect width="32" height="32" rx="5" fill="white"/>
<path d="M15.5198 23H12.6778L6.2427 13.2763V23H3.4007V8.8103H6.2427L12.6778 18.5543V8.8103H15.5198V23ZM28.7016 8.8306V23H25.8596V13.7838L22.0635 23H19.9117L16.0953 13.7838V23H13.2533V8.8306H16.481L20.9876 19.3663L25.4942 8.8306H28.7016Z" fill="black"/>
<path d="M15.5198 23V23.5H16.0198V23H15.5198ZM12.6778 23L12.2608 23.2759L12.4091 23.5H12.6778V23ZM6.2427 13.2763L6.65966 13.0004L5.7427 11.6148V13.2763H6.2427ZM6.2427 23V23.5H6.7427V23H6.2427ZM3.4007 23H2.9007V23.5H3.4007V23ZM3.4007 8.8103V8.3103H2.9007V8.8103H3.4007ZM6.2427 8.8103L6.65992 8.53476L6.51169 8.3103H6.2427V8.8103ZM12.6778 18.5543L12.2606 18.8298L13.1778 20.2187V18.5543H12.6778ZM12.6778 8.8103V8.3103H12.1778V8.8103H12.6778ZM15.5198 8.8103H16.0198V8.3103H15.5198V8.8103ZM15.5198 22.5H12.6778V23.5H15.5198V22.5ZM13.0948 22.7241L6.65966 13.0004L5.82574 13.5522L12.2608 23.2759L13.0948 22.7241ZM5.7427 13.2763V23H6.7427V13.2763H5.7427ZM6.2427 22.5H3.4007V23.5H6.2427V22.5ZM3.9007 23V8.8103H2.9007V23H3.9007ZM3.4007 9.3103H6.2427V8.3103H3.4007V9.3103ZM5.82548 9.08584L12.2606 18.8298L13.095 18.2788L6.65992 8.53476L5.82548 9.08584ZM13.1778 18.5543V8.8103H12.1778V18.5543H13.1778ZM12.6778 9.3103H15.5198V8.3103H12.6778V9.3103ZM15.0198 8.8103V23H16.0198V8.8103H15.0198ZM28.7016 8.8306H29.2016V8.3306H28.7016V8.8306ZM28.7016 23V23.5H29.2016V23H28.7016ZM25.8596 23H25.3596V23.5H25.8596V23ZM25.8596 13.7838H26.3596L25.3973 13.5934L25.8596 13.7838ZM22.0635 23V23.5H22.3983L22.5259 23.1904L22.0635 23ZM19.9117 23L19.4498 23.1913L19.5776 23.5H19.9117V23ZM16.0953 13.7838L16.5573 13.5925L15.5953 13.7838H16.0953ZM16.0953 23V23.5H16.5953V23H16.0953ZM13.2533 23H12.7533V23.5H13.2533V23ZM13.2533 8.8306V8.3306H12.7533V8.8306H13.2533ZM16.481 8.8306L16.9407 8.63396L16.811 8.3306H16.481V8.8306ZM20.9876 19.3663L20.5279 19.5629L20.9876 20.6377L21.4473 19.5629L20.9876 19.3663ZM25.4942 8.8306V8.3306H25.1643L25.0345 8.63396L25.4942 8.8306ZM28.2016 8.8306V23H29.2016V8.8306H28.2016ZM28.7016 22.5H25.8596V23.5H28.7016V22.5ZM26.3596 23V13.7838H25.3596V23H26.3596ZM25.3973 13.5934L21.6012 22.8096L22.5259 23.1904L26.322 13.9742L25.3973 13.5934ZM22.0635 22.5H19.9117V23.5H22.0635V22.5ZM20.3737 22.8087L16.5573 13.5925L15.6334 13.9751L19.4498 23.1913L20.3737 22.8087ZM15.5953 13.7838V23H16.5953V13.7838H15.5953ZM16.0953 22.5H13.2533V23.5H16.0953V22.5ZM13.7533 23V8.8306H12.7533V23H13.7533ZM13.2533 9.3306H16.481V8.3306H13.2533V9.3306ZM16.0213 9.02724L20.5279 19.5629L21.4473 19.1697L16.9407 8.63396L16.0213 9.02724ZM21.4473 19.5629L25.9539 9.02724L25.0345 8.63396L20.5279 19.1697L21.4473 19.5629ZM25.4942 9.3306H28.7016V8.3306H25.4942V9.3306Z" fill="black"/>
</svg>
